<?xml version="1.0" encoding="UTF-8" standalone="no"?>
<!-- Created with Inkscape (http://www.inkscape.org/) -->

<svg
   width="15.999999mm"
   height="16mm"
   viewBox="0 0 15.999999 16"
   version="1.1"
   id="svg1"
   xml:space="preserve"
   inkscape:export-filename="g2132.svg"
   inkscape:export-xdpi="96"
   inkscape:export-ydpi="96"
   xmlns:inkscape="http://www.inkscape.org/namespaces/inkscape"
   xmlns:sodipodi="http://sodipodi.sourceforge.net/DTD/sodipodi-0.dtd"
   xmlns="http://www.w3.org/2000/svg"
   xmlns:svg="http://www.w3.org/2000/svg"><sodipodi:namedview
     id="namedview1"
     pagecolor="#ffffff"
     bordercolor="#000000"
     borderopacity="0.25"
     inkscape:showpageshadow="2"
     inkscape:pageopacity="0.0"
     inkscape:pagecheckerboard="0"
     inkscape:deskcolor="#d1d1d1"
     inkscape:document-units="mm"><inkscape:page
       x="-1.0650147e-05"
       y="0"
       width="15.999999"
       height="16"
       id="page1"
       margin="0"
       bleed="0" /></sodipodi:namedview><defs
     id="defs1"><style
       id="style1">.cls-1{fill:none;}.cls-2{clip-path:url(#clippath);}</style><style
       id="style1-2">.cls-1{fill:none;}.cls-2{clip-path:url(#clippath);}</style></defs><g
     id="g1"
     inkscape:groupmode="layer"
     inkscape:label="1"
     transform="matrix(0.26458333,0,0,0.26458334,220.00002,0)"><g
       id="g18"
       transform="matrix(2.7487474,0,0,2.7487472,-834.24486,-2.7487472)"><path
         d="m 22.56,12.25 c 0,-0.78 -0.07,-1.53 -0.2,-2.25 H 12 v 4.26 h 5.92 c -0.26,1.37 -1.04,2.53 -2.21,3.31 v 2.77 h 3.57 c 2.08,-1.92 3.28,-4.74 3.28,-8.09 z"
         fill="#4285f4"
         id="path1-0" /><path
         d="m 12,23 c 2.97,0 5.46,-0.98 7.28,-2.66 L 15.71,17.57 C 14.73,18.23 13.48,18.63 12,18.63 9.14,18.63 6.71,16.7 5.84,14.1 H 2.18 v 2.84 C 3.99,20.53 7.7,23 12,23 Z"
         fill="#34a853"
         id="path2" /><path
         d="M 5.84,14.09 C 5.62,13.43 5.49,12.73 5.49,12 5.49,11.27 5.62,10.57 5.84,9.91 V 7.07 H 2.18 C 1.43,8.55 1,10.22 1,12 c 0,1.78 0.43,3.45 1.18,4.93 l 2.85,-2.22 z"
         fill="#fbbc05"
         id="path3-6" /><path
         d="m 12,5.38 c 1.62,0 3.06,0.56 4.21,1.64 L 19.36,3.87 C 17.45,2.09 14.97,1 12,1 7.7,1 3.99,3.47 2.18,7.07 L 5.84,9.91 C 6.71,7.31 9.14,5.38 12,5.38 Z"
         fill="#ea4335"
         id="path4-1" /><path
         d="M 1,1 H 23 V 23 H 1 Z"
         fill="none"
         id="path5-5" /></g></g></svg>
